<?xml version="1.0" encoding="UTF-8" standalone="no"?>
<!DOCTYPE svg PUBLIC "-//W3C//DTD SVG 1.1//EN"
 "http://www.w3.org/Graphics/SVG/1.1/DTD/svg11.dtd">
<!-- Generated by graphviz version 2.43.20190912.0211 (20190912.0211)
 -->
<!-- Title: %3 Pages: 1 -->
<svg width="161pt" height="188pt"
 viewBox="0.00 0.00 160.68 188.00" xmlns="http://www.w3.org/2000/svg" xmlns:xlink="http://www.w3.org/1999/xlink">
<g id="graph0" class="graph" transform="scale(1 1) rotate(0) translate(4 184)">
<title>%3</title>
<polygon fill="white" stroke="transparent" points="-4,4 -4,-184 156.68,-184 156.68,4 -4,4"/>
<!-- 0 -->
<g id="node1" class="node">
<title>0</title>
<ellipse fill="none" stroke="black" cx="40.34" cy="-162" rx="27" ry="18"/>
<text text-anchor="middle" x="40.34" y="-158.3" font-family="Times,serif" font-size="14.00">0</text>
</g>
<!-- 1 -->
<g id="node2" class="node">
<title>1</title>
<ellipse fill="none" stroke="black" cx="112.34" cy="-162" rx="27" ry="18"/>
<text text-anchor="middle" x="112.34" y="-158.3" font-family="Times,serif" font-size="14.00">1</text>
</g>
<!-- 0&#45;&#45;1 -->
<g id="edge1" class="edge">
<title>0&#45;&#45;1</title>
<path fill="none" stroke="black" d="M67.34,-162C73.32,-162 79.29,-162 85.27,-162"/>
</g>
<!-- 3 -->
<g id="node4" class="node">
<title>3</title>
<ellipse fill="none" stroke="black" cx="76.34" cy="-18" rx="27" ry="18"/>
<text text-anchor="middle" x="76.34" y="-14.3" font-family="Times,serif" font-size="14.00">3</text>
</g>
<!-- 0&#45;&#45;3 -->
<g id="edge6" class="edge">
<title>0&#45;&#45;3</title>
<path fill="none" stroke="black" d="M26.55,-146.18C11.62,-128.24 -8.45,-97.29 4.34,-72 14.7,-51.5 37.15,-36.99 54.24,-28.39"/>
</g>
<!-- 2 -->
<g id="node3" class="node">
<title>2</title>
<ellipse fill="none" stroke="black" cx="112.34" cy="-90" rx="27" ry="18"/>
<text text-anchor="middle" x="112.34" y="-86.3" font-family="Times,serif" font-size="14.00">2</text>
</g>
<!-- 1&#45;&#45;2 -->
<g id="edge2" class="edge">
<title>1&#45;&#45;2</title>
<path fill="none" stroke="black" d="M112.34,-143.7C112.34,-132.85 112.34,-118.92 112.34,-108.1"/>
</g>
<!-- 1&#45;&#45;3 -->
<g id="edge7" class="edge">
<title>1&#45;&#45;3</title>
<path fill="none" stroke="black" d="M126.13,-146.18C141.05,-128.24 161.12,-97.29 148.34,-72 137.97,-51.5 115.53,-36.99 98.44,-28.39"/>
</g>
<!-- 2&#45;&#45;3 -->
<g id="edge3" class="edge">
<title>2&#45;&#45;3</title>
<path fill="none" stroke="black" d="M103.99,-72.76C98.17,-61.46 90.45,-46.44 84.64,-35.15"/>
</g>
<!-- 4 -->
<g id="node5" class="node">
<title>4</title>
<ellipse fill="none" stroke="black" cx="40.34" cy="-90" rx="27" ry="18"/>
<text text-anchor="middle" x="40.34" y="-86.3" font-family="Times,serif" font-size="14.00">4</text>
</g>
<!-- 3&#45;&#45;4 -->
<g id="edge4" class="edge">
<title>3&#45;&#45;4</title>
<path fill="none" stroke="black" d="M68.03,-35.15C62.23,-46.44 54.5,-61.46 48.69,-72.76"/>
</g>
<!-- 4&#45;&#45;0 -->
<g id="edge5" class="edge">
<title>4&#45;&#45;0</title>
<path fill="none" stroke="black" d="M40.34,-108.1C40.34,-118.92 40.34,-132.85 40.34,-143.7"/>
</g>
</g>
</svg>
